<svg width="100" height="100" viewBox="0 0 100 100" fill="none" xmlns="http://www.w3.org/2000/svg">
<g clip-path="url(#clip0_918_2821)">
<path d="M15.0751 11.6222L61.2855 8.13339C66.8948 7.59665 68.3639 7.99921 71.97 10.5487L86.7947 21.0152C89.1987 22.7596 90 23.2963 90 25.3091V82.6062C90 86.2292 88.6644 88.3762 84.1235 88.6446L30.4341 91.865C26.9616 91.9992 25.3589 91.5966 23.6227 89.3155L12.8047 75.226C10.8013 72.5423 10 70.6637 10 68.3826V17.3922C10 14.4401 11.3356 11.8906 15.0751 11.6222Z" fill="white"/>
<path fill-rule="evenodd" clip-rule="evenodd" d="M61.2855 8.13444L15.0751 11.6233C11.3356 11.8916 10 14.4412 10 17.3932V68.3837C10 70.6648 10.8013 72.6776 12.8047 75.2271L23.6227 89.4507C25.3589 91.7319 27.0952 92.2686 30.4341 92.0003L84.1235 88.7798C88.6644 88.5115 90 86.3645 90 82.7415V25.3102C90 23.4316 89.3322 22.8948 87.0618 21.2846C86.9282 21.1504 86.7947 21.1504 86.6611 21.0162L71.97 10.684C68.4975 8.00026 67.0284 7.73188 61.2855 8.13444ZM31.6361 24.3709C27.2287 24.6392 26.2938 24.7734 23.7563 22.6265L17.4791 17.6616C16.8114 16.9907 17.0785 16.1856 18.8147 16.0514L63.2888 12.8309C67.0284 12.5626 68.8982 13.7702 70.3673 14.9779L77.98 20.4795C78.3806 20.6137 79.182 21.553 78.1135 21.553L32.1703 24.3709H31.6361ZM26.5609 82.2047V33.4955C26.5609 31.3485 27.2287 30.4092 29.0985 30.275L81.8531 27.1888C83.5893 27.0546 84.3907 28.1281 84.3907 30.275V78.5817C84.3907 80.7287 83.99 82.4731 81.1853 82.6073L30.7012 85.5594C27.8965 85.8277 26.5609 84.7543 26.5609 82.2047ZM76.3773 36.1792C76.6444 37.6552 76.3773 39.1313 74.9082 39.2654L72.5042 39.8022V75.7638C70.3673 76.9715 68.4975 77.5083 66.8948 77.5083C64.3573 77.5083 63.6895 76.7031 61.6861 74.2878L45.6594 49.061V73.3485L50.7346 74.5562C50.7346 74.5562 50.7346 77.5083 46.7279 77.5083L35.5092 78.1792C35.2421 77.5083 35.5092 75.898 36.5776 75.6297L39.5159 74.8245V42.6201L35.5092 42.2175C35.2421 40.7415 36.0434 38.5945 38.3139 38.4603L50.3339 37.6552L66.8948 63.1504V40.6073L62.621 40.0705C62.3539 38.3261 63.5559 36.9843 65.1586 36.8501L76.3773 36.1792Z" fill="black"/>
</g>
<defs>
<clipPath id="clip0_918_2821">
<rect width="80" height="84" fill="white" transform="translate(10 8)"/>
</clipPath>
</defs>
</svg>
