<svg width="100" height="100" viewBox="0 0 100 100" fill="none" xmlns="http://www.w3.org/2000/svg">
<path d="M81.8535 27.1885C83.5894 27.0545 84.3906 28.1278 84.3906 30.2744V78.5811C84.3906 80.728 83.99 82.4721 81.1855 82.6064L30.7012 85.5586C27.8965 85.8269 26.5605 84.7537 26.5605 82.2041V33.4951C26.5605 31.3481 27.2288 30.4086 29.0986 30.2744L81.8535 27.1885ZM65.1582 36.8496C63.5557 36.984 62.354 38.3261 62.6211 40.0703L66.8945 40.6064V63.1504L50.334 37.6553L38.3135 38.46C36.0435 38.5944 35.2419 40.7409 35.5088 42.2168L39.5156 42.6201V74.8242L36.5771 75.6289C35.5091 75.8974 35.2419 77.5077 35.5088 78.1787L46.7275 77.5078C50.7342 77.5078 50.7344 74.5557 50.7344 74.5557L45.6592 73.3477V49.0605L61.6865 74.2871C63.6898 76.7023 64.3573 77.5078 66.8945 77.5078C68.4971 77.5078 70.3671 76.9712 72.5039 75.7637V39.8018L74.9082 39.2646C76.3773 39.1305 76.6441 37.6547 76.377 36.1787L65.1582 36.8496ZM63.2891 12.8301C67.0284 12.5619 68.8981 13.7699 70.3672 14.9775L77.9805 20.4795C78.3812 20.6143 79.1813 21.5527 78.1133 21.5527L32.1699 24.3701H31.6357C27.2286 24.6384 26.2933 24.7728 23.7559 22.626L17.4795 17.6611C16.8118 16.9903 17.0785 16.185 18.8145 16.0508L63.2891 12.8301ZM61.2852 8.13281C66.8942 7.59609 68.3639 7.99862 71.9697 10.5479L86.7949 21.0146C88.6251 22.3427 89.5236 22.9717 89.8496 24.084C89.5481 23.0837 88.7469 22.4795 87.0615 21.2842C86.928 21.1501 86.7947 21.1498 86.6611 21.0156L71.9697 10.6836C68.4974 7.99999 67.028 7.73124 61.2852 8.13379L15.0752 11.623C12.6418 11.7976 11.2271 12.9385 10.5352 14.5273C11.2269 12.938 12.6414 11.7968 15.0752 11.6221L61.2852 8.13281Z" fill="white"/>
</svg>
