<svg width="100" height="100" viewBox="0 0 100 100" fill="none" xmlns="http://www.w3.org/2000/svg">
<path d="M61.2852 8.13477C67.0281 7.73221 68.4972 8.00084 71.9697 10.6846L86.6611 21.0166C86.7947 21.1507 86.928 21.151 87.0615 21.2852C88.7482 22.4814 89.5496 23.0852 89.8506 24.0869C89.9523 24.4351 90 24.8303 90 25.3096V82.6064C90 86.2294 88.6639 88.3761 84.123 88.6445L30.4346 91.8652C26.9621 91.9994 25.3592 91.5965 23.623 89.3154L12.8047 75.2266C10.8013 72.5429 10 70.6639 10 68.3828V17.3926C10 17.038 10.0202 16.6893 10.0605 16.3496C10.3566 13.8615 11.7852 11.8591 15.0752 11.623L61.2852 8.13477ZM81.8535 27.1895L29.0986 30.2754C27.2288 30.4096 26.5605 31.3491 26.5605 33.4961V82.2051C26.5606 84.7546 27.8965 85.8279 30.7012 85.5596L81.1855 82.6074C83.99 82.4731 84.3906 80.7289 84.3906 78.582V30.2754C84.3906 28.1286 83.5895 27.0554 81.8535 27.1895ZM76.377 36.1797C76.644 37.6556 76.3772 39.1315 74.9082 39.2656L72.5039 39.8027V75.7637C70.367 76.9713 68.4972 77.5088 66.8945 77.5088C64.3573 77.5087 63.6897 76.7031 61.6865 74.2881L45.6592 49.0615V73.3486L50.7344 74.5566C50.7343 74.5855 50.7145 77.5088 46.7275 77.5088L35.5088 78.1797C35.2417 77.5089 35.5091 75.8985 36.5771 75.6299L39.5156 74.8252V42.6201L35.5088 42.2178C35.2417 40.7419 36.0433 38.5954 38.3135 38.4609L50.334 37.6553L66.8945 63.1504V40.6074L62.6211 40.0703C62.3543 38.3263 63.5558 36.985 65.1582 36.8506L76.377 36.1797ZM70.3672 14.9785C68.8981 13.7708 67.0285 12.5628 63.2891 12.8311L18.8145 16.0518C17.0785 16.186 16.8118 16.9912 17.4795 17.6621L23.7559 22.627C26.2933 24.7738 27.2286 24.6394 31.6357 24.3711H32.1699L78.1133 21.5537C79.1815 21.5537 78.3812 20.6141 77.9805 20.4795L70.3672 14.9785Z" fill="white"/>
</svg>
