<svg width="100" height="100" viewBox="0 0 100 100" fill="none" xmlns="http://www.w3.org/2000/svg">
<path d="M13.1886 62.6797L10.409 64.1519C7.19704 65.8531 7.19704 70.5018 10.409 72.203L45.8291 90.9623C48.4414 92.3459 51.5587 92.3459 54.1709 90.9624L89.591 72.203C92.803 70.5018 92.803 65.8531 89.591 64.1519L86.8114 62.6798L57.0906 78.4207C52.6497 80.7727 47.3504 80.7727 42.9095 78.4207L13.1886 62.6797Z" fill="white"/>
<path d="M13.1886 44.5023L10.409 45.9745C7.19704 47.6756 7.19704 52.3244 10.409 54.0255L45.8291 72.7849C48.4414 74.1685 51.5587 74.1685 54.1709 72.7849L89.591 54.0255C92.803 52.3244 92.803 47.6756 89.591 45.9745L86.8114 44.5023L57.0906 60.2433C52.6497 62.5953 47.3504 62.5953 42.9095 60.2433L13.1886 44.5023Z" fill="white"/>
<path d="M45.8291 9.03764C48.4413 7.65412 51.5586 7.65412 54.1709 9.03764L89.591 27.797C92.803 29.4982 92.803 34.147 89.591 35.8481L54.1709 54.6075C51.5586 55.991 48.4413 55.991 45.8291 54.6075L10.409 35.8481C7.197 34.147 7.197 29.4982 10.409 27.797L45.8291 9.03764Z" fill="white"/>
<path fill-rule="evenodd" clip-rule="evenodd" d="M54.1709 9.03764C51.5586 7.65412 48.4413 7.65412 45.8291 9.03764L10.409 27.797C7.197 29.4982 7.197 34.147 10.409 35.8481L45.8291 54.6075C48.4413 55.991 51.5586 55.991 54.1709 54.6075L89.591 35.8481C92.803 34.147 92.803 29.4982 89.591 27.797L54.1709 9.03764Z" fill="white"/>
</svg>
