<svg width="24" height="24" viewBox="0 0 24 24" fill="none" xmlns="http://www.w3.org/2000/svg">
<path d="M3 10.3346V6.33464C3 4.8613 4.19333 3.66797 5.66667 3.66797H8.268C9.07733 3.66797 9.84133 4.03464 10.348 4.6653L11.152 5.66797H18.3333C19.8067 5.66797 21 6.8613 21 8.33464V10.3346" stroke="white" stroke-width="2" stroke-linecap="round" stroke-linejoin="round"/>
<path d="M3.60257 10.332H20.3972C21.7119 10.332 22.6679 11.5774 22.3292 12.8467L20.8612 18.352C20.5506 19.52 19.4932 20.332 18.2852 20.332H5.71591C4.50791 20.332 3.45057 19.52 3.13991 18.352L1.67191 12.8467C1.33324 11.5774 2.29057 10.332 3.60391 10.332H3.60257Z" stroke="white" stroke-width="2" stroke-linecap="round" stroke-linejoin="round"/>
</svg>
