<svg width="24" height="24" viewBox="0 0 24 24" fill="none" xmlns="http://www.w3.org/2000/svg">
<path d="M20.2133 8.33275H15.6666C14.9306 8.33275 14.3333 7.73542 14.3333 6.99942V2.46875" stroke="white" stroke-width="2" stroke-linecap="round" stroke-linejoin="round"/>
<path d="M3.66675 18.9987V4.9987C3.66675 3.52536 4.86008 2.33203 6.33341 2.33203H13.7814C14.1347 2.33203 14.4747 2.47203 14.7241 2.7227L19.9427 7.94136C20.1934 8.19203 20.3334 8.5307 20.3334 8.88403V18.9987C20.3334 20.472 19.1401 21.6654 17.6667 21.6654H6.33341C4.86008 21.6654 3.66675 20.472 3.66675 18.9987Z" stroke="white" stroke-width="2" stroke-linecap="round" stroke-linejoin="round"/>
<path d="M9.09229 14.7329H8.18652V14.1616H9.09229C9.23226 14.1616 9.34619 14.1388 9.43408 14.0933C9.52197 14.0461 9.58626 13.981 9.62695 13.8979C9.66764 13.8149 9.68799 13.7214 9.68799 13.6172C9.68799 13.5114 9.66764 13.4129 9.62695 13.3218C9.58626 13.2306 9.52197 13.1574 9.43408 13.1021C9.34619 13.0467 9.23226 13.019 9.09229 13.019H8.44043V16H7.70801V12.4453H9.09229C9.37061 12.4453 9.60905 12.4958 9.80762 12.5967C10.0078 12.696 10.1608 12.8335 10.2666 13.0093C10.3724 13.1851 10.4253 13.3861 10.4253 13.6123C10.4253 13.8418 10.3724 14.0404 10.2666 14.208C10.1608 14.3757 10.0078 14.505 9.80762 14.5962C9.60905 14.6873 9.37061 14.7329 9.09229 14.7329ZM12.022 16H11.248L11.2529 15.4287H12.022C12.214 15.4287 12.376 15.3856 12.5078 15.2993C12.6396 15.2114 12.7389 15.0837 12.8057 14.916C12.874 14.7484 12.9082 14.5457 12.9082 14.3081V14.1348C12.9082 13.9525 12.8887 13.7922 12.8496 13.6538C12.8122 13.5155 12.756 13.3991 12.6812 13.3047C12.6063 13.2103 12.5143 13.1395 12.4053 13.0923C12.2962 13.0435 12.1709 13.019 12.0293 13.019H11.2334V12.4453H12.0293C12.2669 12.4453 12.4842 12.486 12.6812 12.5674C12.8797 12.6471 13.0514 12.7619 13.1963 12.9116C13.3411 13.0614 13.4526 13.2404 13.5308 13.4487C13.6105 13.6554 13.6504 13.8857 13.6504 14.1396V14.3081C13.6504 14.5604 13.6105 14.7907 13.5308 14.999C13.4526 15.2074 13.3411 15.3864 13.1963 15.5361C13.0531 15.6842 12.8813 15.799 12.6812 15.8804C12.4826 15.9601 12.2629 16 12.022 16ZM11.6631 12.4453V16H10.9307V12.4453H11.6631ZM14.915 12.4453V16H14.1826V12.4453H14.915ZM16.3311 13.9639V14.5352H14.7148V13.9639H16.3311ZM16.502 12.4453V13.019H14.7148V12.4453H16.502Z" fill="white"/>
</svg>
