<svg width="24" height="24" viewBox="0 0 24 24" fill="none" xmlns="http://www.w3.org/2000/svg">
<path d="M20.2133 8.33275H15.6666C14.9306 8.33275 14.3333 7.73542 14.3333 6.99942V2.46875" stroke="white" stroke-width="2" stroke-linecap="round" stroke-linejoin="round"/>
<path d="M3.66675 18.9987V4.9987C3.66675 3.52536 4.86008 2.33203 6.33341 2.33203H13.7814C14.1347 2.33203 14.4747 2.47203 14.7241 2.7227L19.9427 7.94136C20.1934 8.19203 20.3334 8.5307 20.3334 8.88403V18.9987C20.3334 20.472 19.1401 21.6654 17.6667 21.6654H6.33341C4.86008 21.6654 3.66675 20.472 3.66675 18.9987Z" stroke="white" stroke-width="2" stroke-linecap="round" stroke-linejoin="round"/>
<path d="M8.42334 16H7.64941L7.6543 15.4287H8.42334C8.6154 15.4287 8.77734 15.3856 8.90918 15.2993C9.04102 15.2114 9.1403 15.0837 9.20703 14.916C9.27539 14.7484 9.30957 14.5457 9.30957 14.3081V14.1348C9.30957 13.9525 9.29004 13.7922 9.25098 13.6538C9.21354 13.5155 9.15739 13.3991 9.08252 13.3047C9.00765 13.2103 8.91569 13.1395 8.80664 13.0923C8.69759 13.0435 8.57227 13.019 8.43066 13.019H7.63477V12.4453H8.43066C8.66829 12.4453 8.88558 12.486 9.08252 12.5674C9.28109 12.6471 9.4528 12.7619 9.59766 12.9116C9.74251 13.0614 9.854 13.2404 9.93213 13.4487C10.0119 13.6554 10.0518 13.8857 10.0518 14.1396V14.3081C10.0518 14.5604 10.0119 14.7907 9.93213 14.999C9.854 15.2074 9.74251 15.3864 9.59766 15.5361C9.45443 15.6842 9.28271 15.799 9.08252 15.8804C8.88395 15.9601 8.66423 16 8.42334 16ZM8.06445 12.4453V16H7.33203V12.4453H8.06445ZM13.5039 14.1396V14.3081C13.5039 14.5783 13.4673 14.8208 13.394 15.0356C13.3208 15.2505 13.2174 15.4336 13.084 15.585C12.9505 15.7347 12.791 15.8494 12.6055 15.9292C12.4215 16.009 12.2173 16.0488 11.9927 16.0488C11.7697 16.0488 11.5654 16.009 11.3799 15.9292C11.196 15.8494 11.0365 15.7347 10.9014 15.585C10.7663 15.4336 10.6613 15.2505 10.5864 15.0356C10.5132 14.8208 10.4766 14.5783 10.4766 14.3081V14.1396C10.4766 13.8678 10.5132 13.6253 10.5864 13.4121C10.6597 13.1973 10.763 13.0142 10.8965 12.8628C11.0316 12.7114 11.1911 12.5959 11.375 12.5161C11.5605 12.4364 11.7648 12.3965 11.9878 12.3965C12.2124 12.3965 12.4167 12.4364 12.6006 12.5161C12.7861 12.5959 12.9456 12.7114 13.0791 12.8628C13.2142 13.0142 13.3184 13.1973 13.3916 13.4121C13.4665 13.6253 13.5039 13.8678 13.5039 14.1396ZM12.7642 14.3081V14.1348C12.7642 13.946 12.7471 13.7799 12.7129 13.6367C12.6787 13.4935 12.6283 13.373 12.5615 13.2754C12.4948 13.1777 12.4134 13.1045 12.3174 13.0557C12.2214 13.0052 12.1115 12.98 11.9878 12.98C11.8641 12.98 11.7542 13.0052 11.6582 13.0557C11.5638 13.1045 11.4832 13.1777 11.4165 13.2754C11.3514 13.373 11.3018 13.4935 11.2676 13.6367C11.2334 13.7799 11.2163 13.946 11.2163 14.1348V14.3081C11.2163 14.4953 11.2334 14.6613 11.2676 14.8062C11.3018 14.9494 11.3522 15.0706 11.4189 15.1699C11.4857 15.2676 11.5671 15.3416 11.6631 15.3921C11.7591 15.4425 11.869 15.4678 11.9927 15.4678C12.1164 15.4678 12.2262 15.4425 12.3223 15.3921C12.4183 15.3416 12.4989 15.2676 12.564 15.1699C12.6291 15.0706 12.6787 14.9494 12.7129 14.8062C12.7471 14.6613 12.7642 14.4953 12.7642 14.3081ZM16.0918 14.8208H16.8218C16.8071 15.0601 16.7412 15.2725 16.624 15.458C16.5085 15.6436 16.3465 15.7884 16.1382 15.8926C15.9315 15.9967 15.6825 16.0488 15.3911 16.0488C15.1632 16.0488 14.959 16.0098 14.7783 15.9316C14.5977 15.8519 14.443 15.738 14.3145 15.5898C14.1875 15.4417 14.0907 15.2627 14.0239 15.0527C13.9572 14.8428 13.9238 14.6076 13.9238 14.3472V14.1006C13.9238 13.8402 13.958 13.605 14.0264 13.395C14.0964 13.1834 14.1956 13.0036 14.3242 12.8555C14.4544 12.7074 14.6099 12.5934 14.7905 12.5137C14.9712 12.4339 15.173 12.394 15.396 12.394C15.6922 12.394 15.9421 12.4478 16.1455 12.5552C16.3506 12.6626 16.5093 12.8107 16.6216 12.9995C16.7355 13.1883 16.8039 13.4032 16.8267 13.644H16.0942C16.0861 13.5008 16.0576 13.3796 16.0088 13.2803C15.96 13.1794 15.8859 13.1037 15.7866 13.0532C15.689 13.0011 15.5588 12.9751 15.396 12.9751C15.2739 12.9751 15.1673 12.9979 15.0762 13.0435C14.985 13.089 14.9085 13.1582 14.8467 13.251C14.7848 13.3438 14.7384 13.4609 14.7075 13.6025C14.6782 13.7425 14.6636 13.9069 14.6636 14.0957V14.3472C14.6636 14.5311 14.6774 14.693 14.7051 14.833C14.7327 14.9714 14.7751 15.0885 14.832 15.1846C14.8906 15.279 14.9655 15.3506 15.0566 15.3994C15.1494 15.4466 15.2609 15.4702 15.3911 15.4702C15.5441 15.4702 15.6702 15.4458 15.7695 15.397C15.8688 15.3481 15.9445 15.2757 15.9966 15.1797C16.0503 15.0837 16.082 14.964 16.0918 14.8208Z" fill="white"/>
</svg>
