<svg width="24" height="24" viewBox="0 0 24 24" fill="none" xmlns="http://www.w3.org/2000/svg">
<path d="M22 8.64C21.93 10.27 20.65 12.52 18.17 15.39C15.6 18.39 13.4 19.89 11.56 19.89C10.41 19.89 9.43 18.81 8.62 16.65L7.13 10.99C6.5 8.83 5.82 7.75 5.09 7.75C4.96 7.75 4.45 8.06 3.56 8.68L2.69 7.55C3.67 6.68 4.64 5.81 5.59 4.93C6.91 3.78 7.9 3.18 8.56 3.13C10.1 2.98 11.06 4.05 11.45 6.33C11.86 8.8 12.15 10.24 12.32 10.65C12.78 12.68 13.28 13.69 13.83 13.69C14.27 13.69 14.93 12.97 15.81 11.52C16.69 10.07 17.16 8.97 17.22 8.22C17.34 7.03 16.81 6.44 15.64 6.44C15.09 6.44 14.52 6.56 13.93 6.81C14.99 3.37 16.97 1.69 19.87 1.78C22.01 1.84 22.96 3.18 22.81 5.72L22 8.64Z" fill="white"/>
</svg>

