<svg width="24" height="24" viewBox="0 0 24 24" fill="none" xmlns="http://www.w3.org/2000/svg">
<path d="M16.2027 11.3521L11.3347 8.51344C10.8907 8.25478 10.332 8.57478 10.332 9.08944V14.7681C10.332 15.2828 10.8907 15.6028 11.3347 15.3441L16.2027 12.5054C16.644 12.2481 16.644 11.6108 16.2027 11.3534V11.3521Z" stroke="white" stroke-width="2" stroke-linecap="round" stroke-linejoin="round"/>
<path d="M12.6667 2.26172C18.0054 2.26172 22.3334 6.58972 22.3334 11.9284C22.3334 17.2671 18.0054 21.5951 12.6667 21.5951" stroke="white" stroke-width="2" stroke-linecap="round" stroke-linejoin="round"/>
<path d="M5.83081 19.7656C6.3831 19.7656 6.83081 19.3179 6.83081 18.7656C6.83081 18.2133 6.3831 17.7656 5.83081 17.7656C5.27853 17.7656 4.83081 18.2133 4.83081 18.7656C4.83081 19.3179 5.27853 19.7656 5.83081 19.7656Z" fill="white"/>
<path d="M3 12.9297C3.55228 12.9297 4 12.482 4 11.9297C4 11.3774 3.55228 10.9297 3 10.9297C2.44772 10.9297 2 11.3774 2 11.9297C2 12.482 2.44772 12.9297 3 12.9297Z" fill="white"/>
<path d="M5.83081 6.09375C6.3831 6.09375 6.83081 5.64603 6.83081 5.09375C6.83081 4.54147 6.3831 4.09375 5.83081 4.09375C5.27853 4.09375 4.83081 4.54147 4.83081 5.09375C4.83081 5.64603 5.27853 6.09375 5.83081 6.09375Z" fill="white"/>
<path d="M8.96802 21.8594C9.5203 21.8594 9.96802 21.4117 9.96802 20.8594C9.96802 20.3071 9.5203 19.8594 8.96802 19.8594C8.41573 19.8594 7.96802 20.3071 7.96802 20.8594C7.96802 21.4117 8.41573 21.8594 8.96802 21.8594Z" fill="white"/>
<path d="M3.73608 16.6289C4.28837 16.6289 4.73608 16.1812 4.73608 15.6289C4.73608 15.0766 4.28837 14.6289 3.73608 14.6289C3.1838 14.6289 2.73608 15.0766 2.73608 15.6289C2.73608 16.1812 3.1838 16.6289 3.73608 16.6289Z" fill="white"/>
<path d="M3.73608 9.23047C4.28837 9.23047 4.73608 8.78275 4.73608 8.23047C4.73608 7.67818 4.28837 7.23047 3.73608 7.23047C3.1838 7.23047 2.73608 7.67818 2.73608 8.23047C2.73608 8.78275 3.1838 9.23047 3.73608 9.23047Z" fill="white"/>
<path d="M8.96802 4C9.5203 4 9.96802 3.55228 9.96802 3C9.96802 2.44772 9.5203 2 8.96802 2C8.41573 2 7.96802 2.44772 7.96802 3C7.96802 3.55228 8.41573 4 8.96802 4Z" fill="white"/>
</svg>
