<svg width="24" height="24" viewBox="0 0 24 24" fill="none" xmlns="http://www.w3.org/2000/svg">
<path d="M17.5919 11.1775C16.1626 9.74814 13.8372 9.74814 12.4066 11.1775L4.26123 19.3241C4.75056 19.9335 5.4919 20.3321 6.33323 20.3321H17.6666C19.1399 20.3321 20.3332 19.1375 20.3332 17.6655V13.9175L17.5919 11.1775Z" fill="white"/>
<path d="M8.33341 11.3333C9.25389 11.3333 10.0001 10.5871 10.0001 9.66667C10.0001 8.74619 9.25389 8 8.33341 8C7.41294 8 6.66675 8.74619 6.66675 9.66667C6.66675 10.5871 7.41294 11.3333 8.33341 11.3333Z" fill="white"/>
<path d="M17.6667 21.3346H6.33341C4.31075 21.3346 2.66675 19.6906 2.66675 17.668V6.33464C2.66675 4.31197 4.31075 2.66797 6.33341 2.66797H17.6667C19.6894 2.66797 21.3334 4.31197 21.3334 6.33464V17.668C21.3334 19.6906 19.6894 21.3346 17.6667 21.3346ZM6.33341 4.66797C5.41475 4.66797 4.66675 5.41597 4.66675 6.33464V17.668C4.66675 18.5866 5.41475 19.3346 6.33341 19.3346H17.6667C18.5854 19.3346 19.3334 18.5866 19.3334 17.668V6.33464C19.3334 5.41597 18.5854 4.66797 17.6667 4.66797H6.33341Z" fill="white"/>
</svg>
