<svg width="32" height="32" viewBox="0 0 32 32" fill="none" xmlns="http://www.w3.org/2000/svg">
<path d="M6.83996 8.63162C6.81175 7.82552 6.934 7.04753 7.4371 6.37267C7.45127 6.71948 7.49352 7.05223 7.63458 7.38498C7.91199 6.09615 8.56086 5.07446 9.62349 4.31522C9.53416 4.59174 9.45893 4.86825 9.48243 5.14477C9.89149 4.79796 10.3664 4.31055 11.5701 4.0809C12.2613 3.94966 12.9665 3.98725 13.5496 4.12783C15.3598 4.56368 16.4177 5.73535 16.8268 7.51626C17.076 8.59888 16.8597 9.62524 16.4366 10.6282C16.1921 11.2093 15.8723 11.7717 15.4633 12.2732C15.3692 12.1841 15.2799 12.095 15.1906 12.0107C13.1781 10.0986 13.9304 10.8297 13.432 10.258C13.3803 10.2017 13.385 10.155 13.4272 10.0891C13.8175 9.45644 13.9821 8.76749 13.8974 8.02701C13.8457 7.56771 13.6952 7.14123 13.3661 6.79911C12.6843 6.08205 11.523 6.09611 10.8506 6.82715C10.3146 7.41297 10.1876 8.11128 10.3381 8.87051C10.3475 8.93136 10.3568 8.99698 10.3381 9.05325C10.1782 9.69533 10.1218 10.3468 10.2205 11.0029C10.2253 11.0264 10.2253 11.0544 10.2253 11.0779C10.2253 11.0924 10.2205 11.1013 10.216 11.1294C9.19095 10.6138 8.52327 9.80306 8.18473 8.68296C7.79448 9.51718 7.66282 10.3467 7.87441 11.2184C7.14091 10.506 6.87287 9.61112 6.83996 8.63162ZM28.9201 14.4056C28.3747 13.8619 27.7447 13.4495 27.0347 13.1589C26.4328 12.9152 25.8122 12.7887 25.1586 12.8262C24.6884 12.8542 24.237 12.9715 23.7951 13.1261C23.6775 13.1683 23.5553 13.2011 23.433 13.2291C23.2026 13.2854 23.0898 13.0838 23.212 12.9104C23.3625 12.6948 23.3719 12.7136 23.9173 12.348C23.9455 12.3293 23.9737 12.3104 24.0207 12.2776H23.9032C23.875 12.2776 23.8468 12.288 23.8139 12.2922C22.9064 12.4469 22.3704 13.0186 21.5146 13.6794C21.0256 14.059 20.8658 13.8576 20.9504 13.6559C21.0162 13.4919 21.1056 13.3419 21.1902 13.1873C21.2372 13.103 21.2983 13.028 21.3548 12.9482C21.3454 12.9379 21.3313 12.9337 21.3218 12.9248C20.0523 13.7824 19.1261 14.9119 18.6088 16.3601C18.623 16.3746 18.6418 16.3881 18.6559 16.4022C18.67 16.3742 18.6794 16.346 18.6982 16.3225C19.1872 15.7554 19.7702 15.3008 20.4191 14.9259C21.2748 14.4291 22.1823 14.0682 23.1791 13.9792C23.3813 13.9605 23.5882 13.975 23.7951 13.975C23.7104 14.0078 23.6305 14.0172 23.5458 14.0265C22.676 14.1391 21.8767 14.4483 21.1244 14.8936C19.7044 15.7325 18.5618 16.8713 17.5932 18.193C17.5791 18.2117 17.5745 18.2351 17.5603 18.2538C18.2421 18.5022 18.6888 19.0646 19.2577 19.4536C19.2671 19.4494 19.2719 19.4432 19.2764 19.4349L19.3329 19.3084C19.9065 18.0477 20.6024 16.8573 21.5287 15.8169C22.3139 14.9358 23.3154 14.6312 24.4674 14.8796C24.7448 14.9404 25.0034 15.0858 25.2761 15.1983C25.3842 15.1326 25.5159 15.0483 25.6522 14.978C26.0472 14.7764 26.4704 14.6499 26.9076 14.5562C27.5988 14.4108 28.2947 14.3266 29 14.4954V14.4719C28.9765 14.4532 28.9437 14.4336 28.9201 14.4056ZM17.8518 22.6306C15.9993 21.084 16.7798 21.7167 15.8441 20.9622C15.8065 21.0043 15.8441 20.9518 15.7548 21.1027C15.2282 21.9979 14.5558 22.7571 13.6859 23.3336C13.2016 23.6523 12.675 23.8866 12.0826 23.8866C11.067 23.8866 10.2865 23.4414 9.75985 22.5837C9.19562 21.6698 9.1345 20.6763 9.37429 19.6499C9.74104 18.0658 10.7896 17.0629 11.1892 16.6364C10.31 16.3458 9.6376 16.7161 9.00754 17.2878C9.04517 16.6364 9.20973 16.0599 9.56237 15.5397C8.4198 16.0365 7.40419 16.7114 6.51553 17.5971C6.50136 17.3253 6.76943 15.5491 6.77884 15.5022C6.793 15.3757 6.75063 15.2538 6.63777 15.1554C5.49991 16.313 4.54542 17.5831 4 19.1203C4.34794 18.8438 4.70059 18.586 5.10965 18.3611C4.71939 19.4062 4.18808 20.8356 4.7429 23.0993C4.95919 23.9897 5.30243 24.8239 5.87606 25.5504C6.01242 25.7238 6.17228 25.8737 6.32274 26.0331C6.33212 26.0227 6.34149 26.0185 6.35095 26.0096C6.28512 25.6815 6.24751 25.3488 6.28043 24.9832C6.38387 25.1332 6.46381 25.2644 6.55784 25.3863C7.15029 26.1361 7.90729 26.6704 8.77715 27.0547C9.95262 27.5843 11.1798 27.6781 12.4399 27.4578C15.0213 27.0032 16.7046 25.1801 17.8942 22.8274C17.9412 22.7431 17.9224 22.6917 17.8518 22.6306ZM25.9391 20.456C25.4924 20.3107 24.8953 20.2592 24.5897 20.3202C25.0552 20.5077 25.2526 20.6295 25.4736 20.8826C26.0661 21.5575 25.9626 22.5088 25.2197 23.0197C24.6696 23.3993 24.049 23.5118 23.3907 23.4462C23.3343 23.442 23.2825 23.4275 23.2496 23.4182C23.3813 23.2448 23.5317 23.0901 23.6305 22.912C24.0725 22.1246 23.8844 20.9389 23.2214 20.2828C23.1227 20.1844 23.0051 20.1 22.8923 20.0063C22.8781 20.0671 22.8875 20.1047 22.8971 20.1375C23.0946 20.9155 22.5162 21.656 21.731 21.6279C21.3737 21.6133 21.0774 21.4497 20.8094 21.2295C19.8926 20.475 18.971 19.7251 18.0588 18.9658C17.7814 18.7362 17.4711 18.5862 17.1137 18.5581C16.8974 18.5394 16.6764 18.5301 16.4602 18.516C16.1827 18.4973 16.0464 18.3847 15.9712 18.1223C15.9288 17.963 15.9006 17.8036 15.8677 17.6442C15.7972 17.2646 15.5762 17.035 15.1953 16.9787C14.9885 16.9459 14.7769 16.9318 14.57 16.9083C13.9587 16.8427 13.639 16.5615 13.5074 15.9569C13.2723 16.4725 13.4321 17.0067 13.8506 17.3582C14.0622 17.5364 14.2879 17.7004 14.4995 17.8831C14.7158 18.0613 14.8474 18.2909 14.8709 18.5768C14.8897 18.797 14.9085 19.022 14.9555 19.2376C15.059 19.7344 15.374 20.0999 15.7549 20.4139C16.5307 21.056 17.3065 21.6934 18.0823 22.3401C18.924 23.0431 18.7359 23.8774 18.6936 24.9647C18.6512 26.0379 19.2672 26.9752 20.2687 27.3642C20.3157 27.3829 20.3627 27.3923 20.438 27.4157C19.6998 26.5628 19.9631 25.3489 20.4709 24.9646C20.4851 25.0676 20.4896 25.166 20.5132 25.2646C20.9552 27.3314 22.6479 28.2734 24.5098 27.9313C25.2621 27.7954 25.9486 27.5142 26.5269 27.0033C26.621 26.919 26.7009 26.8112 26.8044 26.6987C25.8969 26.9143 25.1211 26.7028 24.4111 26.2019C24.444 26.1873 24.4722 26.1873 24.5004 26.1873C25.5019 26.2717 26.4094 26.0281 27.1805 25.3719C28.0974 24.5939 28.4312 23.3613 27.9986 22.2787C27.6084 21.3367 26.8889 20.7653 25.9391 20.456ZM7.63458 12.3997C7.38538 11.9685 7.01393 11.6686 6.59546 11.4014C7.23962 11.378 7.84617 11.4118 8.45741 11.5748C8.12828 11.003 8.05775 10.4172 8.22232 9.76107C8.47152 10.3188 8.86648 10.7031 9.33197 11.0171C10.2582 11.6357 11.0106 11.9357 11.5278 12.4325C11.6876 12.5872 11.824 12.7652 11.9791 12.9433C11.9415 12.8449 11.9133 12.7512 11.8757 12.6621C11.6406 12.1653 11.2645 11.7904 10.8131 11.4905C10.7285 11.4342 10.6814 11.3733 10.6532 11.2795C10.4981 10.6937 10.5122 10.1032 10.6203 9.51739C10.6673 9.25962 10.752 9.00653 10.8319 8.75346C10.8695 8.64091 10.94 8.53787 11.02 8.44413C11.0482 8.76751 11.02 9.63924 11.9416 10.6C12.4494 11.1296 12.9948 11.6264 13.5355 12.1325C13.9587 12.5309 14.3959 12.9152 14.7345 13.3885C14.7862 13.4635 14.8379 13.5432 14.9132 13.6088C14.6781 12.9995 14.2455 12.4793 13.7753 12.0247C13.3239 11.5889 12.8631 11.1624 12.4023 10.7406C12.2472 10.6 12.186 10.4266 12.1625 10.2298C12.1061 9.74234 12.1625 9.26429 12.3647 8.81438C12.3882 8.76745 12.4165 8.72073 12.4541 8.65968C12.4776 8.85654 12.4823 9.02993 12.5199 9.20332C12.7456 10.2859 13.4791 10.9046 14.8379 12.1793C15.3081 12.6199 15.7454 13.0792 16.0416 13.6603C16.2673 14.0962 16.3849 14.5508 16.3096 15.0476C16.3048 15.0756 16.3332 15.1273 16.3614 15.1412C16.6529 15.2631 16.8316 15.4646 16.8174 15.8114C17.1795 15.6895 17.4052 15.4365 17.5886 15.1319C17.786 16.0785 17.1607 17.4892 16.3096 17.8829C16.3284 17.672 16.5447 16.7862 15.5338 16.5847C15.2141 16.5239 14.932 16.5239 14.4571 16.4863C14.6781 16.0645 14.9461 15.5208 14.4806 15.4365C13.3098 15.2209 11.998 15.5256 11.7629 15.6521C12.1484 15.6707 12.5293 15.699 12.8678 15.8068C12.7738 16.1114 12.6798 16.402 12.5951 16.6925C12.5058 16.9972 12.6939 17.3768 13.0324 17.1425C13.0888 17.1003 13.1405 17.0534 13.1876 17.016C13.0418 17.8549 13.0512 17.7612 13.0559 17.8737C13.0701 18.3517 13.5026 18.2392 13.7941 18.2158C13.6766 18.7688 12.4071 19.4952 11.6595 19.4249C11.9886 19.2047 12.2566 18.9422 12.4071 18.586C12.1014 18.6236 11.8005 18.661 11.5043 18.6986L11.4901 18.6564C11.7111 18.4971 11.8663 18.2909 11.9697 18.0425C12.3788 17.0536 11.8004 16.2615 10.7942 16.1725C10.3664 16.1349 9.9573 16.2101 9.57645 16.4303C9.86797 15.6992 10.3852 15.1836 11.1093 14.8134C10.3946 14.6118 10.6908 14.6869 9.9526 14.5181C10.6391 14.0823 11.3726 13.8995 12.139 13.8339C11.8945 13.6839 9.87737 13.665 8.83825 14.8134C9.2097 14.879 9.56704 14.9446 9.92909 15.0102C8.81004 15.3383 7.86025 15.9335 6.9951 16.6787C7.04683 16.4537 7.12206 16.2335 7.15027 16.0085C7.17847 15.7976 7.18787 15.5773 7.15506 15.3711C7.08454 14.9306 6.73659 14.6634 6.22878 14.6072C5.85733 14.565 5.49528 14.6113 5.13323 14.668C5.09092 14.6722 5.0533 14.6826 4.99688 14.668C5.73978 13.9744 6.68957 13.651 7.4936 13.098C7.77571 12.8871 7.81325 12.7137 7.63458 12.3997ZM13.6718 13.6557C13.827 14.4056 14.2643 14.8508 14.7909 14.7946C14.5746 14.265 14.222 13.8807 13.6718 13.6557Z" fill="white"/>
</svg>
