<svg fill="none" height="84" viewBox="0 0 84 84" width="84" xmlns="http://www.w3.org/2000/svg"><rect fill="#fff" height="84" rx="42" width="84"/><rect fill="#967acc" fill-opacity=".5" height="26" rx="5.13433" width="44" x="20" y="31"/><g stroke="#141623" stroke-width="3"><rect height="26" rx="5.13433" width="44" x="20" y="31"/><path d="m26 29.1343c0-2.8356 2.2987-5.1343 5.1343-5.1343h21.7314c2.8356 0 5.1343 2.2987 5.1343 5.1343v1.8657h-32z"/><path d="m32 24c0-2.7614 2.2386-5 5-5h10c2.7614 0 5 2.2386 5 5z"/><path d="m32 41c0 2.8356 2.2987 5.1343 5.1343 5.1343h8.9851c2.8356 0 5.1343-2.2987 5.1343-5.1343" stroke-linecap="round"/></g></svg>