<svg width="24" height="24" viewBox="0 0 24 24" fill="none" xmlns="http://www.w3.org/2000/svg">
<path fill-rule="evenodd" clip-rule="evenodd" d="M12 2C6.477 2 2 6.477 2 12C2 16.418 4.865 20.166 8.839 21.489C9.339 21.581 9.521 21.278 9.521 21.017C9.521 20.782 9.512 20.082 9.508 19.212C6.726 19.817 6.139 17.965 6.139 17.965C5.685 16.812 5.029 16.51 5.029 16.51C4.121 15.884 5.098 15.897 5.098 15.897C6.101 15.967 6.629 16.926 6.629 16.926C7.521 18.455 8.97 18.013 9.539 17.762C9.631 17.105 9.889 16.664 10.175 16.419C7.954 16.171 5.62 15.309 5.62 11.477C5.62 10.386 6.01 9.493 6.649 8.794C6.545 8.546 6.203 7.527 6.747 6.154C6.747 6.154 7.587 5.889 9.497 7.179C10.295 6.961 11.15 6.851 12 6.847C12.85 6.851 13.705 6.961 14.505 7.179C16.413 5.889 17.251 6.154 17.251 6.154C17.797 7.527 17.455 8.546 17.351 8.794C17.991 9.493 18.378 10.386 18.378 11.477C18.378 15.319 16.04 16.168 13.813 16.411C14.172 16.715 14.492 17.318 14.492 18.241C14.492 19.566 14.48 20.631 14.48 21.017C14.48 21.28 14.659 21.586 15.167 21.488C19.138 20.163 22 16.416 22 12C22 6.477 17.523 2 12 2Z" fill="white"/>
</svg>

