<svg width="24" height="24" viewBox="0 0 24 24" fill="none" xmlns="http://www.w3.org/2000/svg">
<path d="M12 20.332V14.332" stroke="white" stroke-width="2" stroke-linecap="round" stroke-linejoin="round"/>
<path d="M9 7.66667V6C9 4.34267 10.3427 3 12 3C13.6573 3 15 4.34267 15 6V7.66667" stroke="white" stroke-width="2" stroke-linecap="round" stroke-linejoin="round"/>
<path d="M6.33325 13H2.33325" stroke="white" stroke-width="2" stroke-linecap="round" stroke-linejoin="round"/>
<path d="M6.33341 9.66667C4.30808 9.66667 2.66675 8.02533 2.66675 6" stroke="white" stroke-width="2" stroke-linecap="round" stroke-linejoin="round"/>
<path d="M6.33341 16.332C4.30808 16.332 2.66675 17.9734 2.66675 19.9987" stroke="white" stroke-width="2" stroke-linecap="round" stroke-linejoin="round"/>
<path d="M17.6667 13H21.6667" stroke="white" stroke-width="2" stroke-linecap="round" stroke-linejoin="round"/>
<path d="M17.6667 9.66667C19.6921 9.66667 21.3334 8.02533 21.3334 6" stroke="white" stroke-width="2" stroke-linecap="round" stroke-linejoin="round"/>
<path d="M17.6667 16.332C19.6921 16.332 21.3334 17.9734 21.3334 19.9987" stroke="white" stroke-width="2" stroke-linecap="round" stroke-linejoin="round"/>
<path d="M8.99992 7.66797H14.9999C16.4719 7.66797 17.6666 8.86264 17.6666 10.3346V14.668C17.6666 17.796 15.1279 20.3346 11.9999 20.3346C8.87192 20.3346 6.33325 17.796 6.33325 14.668V10.3346C6.33325 8.86264 7.52792 7.66797 8.99992 7.66797Z" stroke="white" stroke-width="2" stroke-linecap="round" stroke-linejoin="round"/>
</svg>
