<svg width="24" height="24" viewBox="0 0 24 24" fill="none" xmlns="http://www.w3.org/2000/svg">
<path d="M3.6665 9.66536L3.6665 6.33203C3.6665 4.85203 4.85984 3.66536 6.33317 3.66536L17.6665 3.66536C19.1398 3.66536 20.3332 4.85203 20.3332 6.33203L20.3332 17.6654C20.3332 19.1454 19.1398 20.332 17.6665 20.332L14.3332 20.332" stroke="white" stroke-width="2" stroke-linecap="round" stroke-linejoin="round"/>
<path d="M8.33317 12.9987H6.33317C4.85984 12.9987 3.6665 14.1987 3.6665 15.6654L3.6665 17.6654C3.6665 19.132 4.85984 20.332 6.33317 20.332H8.33317C9.8065 20.332 10.9998 19.132 10.9998 17.6654V15.6654C10.9998 14.1987 9.8065 12.9987 8.33317 12.9987Z" stroke="white" stroke-width="2" stroke-linecap="round" stroke-linejoin="round"/>
<path d="M16.3333 11.6641V7.66406L12.3333 7.66406" stroke="white" stroke-width="2" stroke-linecap="round" stroke-linejoin="round"/>
<path d="M16.3332 7.66536L12.6665 11.332" stroke="white" stroke-width="2" stroke-linecap="round" stroke-linejoin="round"/>
</svg>
